<?xml version="1.0" encoding="utf-8"?>
<!-- Generator: Adobe Illustrator 22.0.0, SVG Export Plug-In . SVG Version: 6.00 Build 0)  -->
<svg version="1.1" id="Layer_1" xmlns="http://www.w3.org/2000/svg" xmlns:xlink="http://www.w3.org/1999/xlink" x="0px" y="0px"
	 viewBox="0 0 500 500" style="enable-background:new 0 0 500 500;" xml:space="preserve">
<style type="text/css">
	.st0{fill:url(#SVGID_1_);}
	.st1{fill:#FFFFFF;}
</style>
<g>
	<linearGradient id="SVGID_1_" gradientUnits="userSpaceOnUse" x1="153.2772" y1="310.1819" x2="346.1151" y2="503.0197">
		<stop  offset="0" style="stop-color:#CCCCCC"/>
		<stop  offset="0.392" style="stop-color:#FFFFFF"/>
	</linearGradient>
	<path class="st0" d="M319.5,319.6H179.9c-48,0-87,38.9-87,87s38.9,87,87,87h139.6c48,0,87-38.9,87-87S367.6,319.6,319.5,319.6z
		 M319.5,440.9H179.9c-19,0-34.3-15.4-34.3-34.3c0-19,15.4-34.3,34.3-34.3h139.6c19,0,34.3,15.4,34.3,34.3
		C353.9,425.6,338.5,440.9,319.5,440.9z"/>
	<path class="st1" d="M232.5,285.3c77.1,0,139.6-62.5,139.6-139.6S309.6,6,232.5,6S92.9,68.5,92.9,145.6c0,29.4,9.1,56.6,24.5,79.1
		l0,0c-15.2,15.7-24.5,37-24.5,60.6c0,48,38.9,87,87,87v-0.2h139.4v-52.3H179.9v-0.2c-19,0-34.3-15.4-34.3-34.3
		c0-9.1,3.6-17.4,9.4-23.6C177.1,276.6,203.8,285.3,232.5,285.3z M232.5,58.6c48,0,87,38.9,87,87s-38.9,87-87,87s-87-38.9-87-87
		S184.5,58.6,232.5,58.6z"/>
</g>
</svg>
